<?xml version="1.0" standalone="no"?>
<!DOCTYPE svg PUBLIC "-//W3C//DTD SVG 20010904//EN"
 "http://www.w3.org/TR/2001/REC-SVG-20010904/DTD/svg10.dtd">
<svg version="1.0" xmlns="http://www.w3.org/2000/svg"
 width="512.000000pt" height="512.000000pt" viewBox="0 0 512.000000 512.000000"
 preserveAspectRatio="xMidYMid meet">

<g transform="translate(0.000000,512.000000) scale(0.100000,-0.100000)"
fill="#000000" stroke="none">
<path d="M0 2560 l0 -2560 748 1 c411 1 739 3 730 6 -15 4 -18 16 -18 62 l0
58 -51 6 c-70 9 -81 19 -77 81 3 49 1 53 -41 93 -25 24 -50 43 -56 43 -7 0
-20 9 -30 20 -10 11 -22 20 -27 20 -13 0 -71 52 -123 111 -17 19 -51 45 -75
58 -25 13 -54 32 -66 42 -11 11 -25 19 -30 19 -15 0 -61 54 -66 76 -2 13 -13
19 -33 20 -67 2 -65 -1 -65 65 0 55 -4 67 -45 130 -24 38 -47 69 -50 69 -4 0
-4 -4 -1 -9 3 -5 0 -13 -7 -19 -14 -11 -200 -82 -204 -78 -2 2 -2 175 -1 384
l3 382 27 -14 c15 -8 37 -12 49 -9 11 3 24 0 29 -6 4 -7 5 34 2 91 -2 57 -1
100 3 96 5 -4 14 0 22 10 13 16 14 15 10 -5 -3 -13 -1 -26 4 -29 5 -3 9 2 9
10 0 25 17 18 24 -9 6 -25 23 -30 82 -26 12 1 24 -5 27 -13 4 -9 2 -16 -3 -16
-6 0 -10 -4 -10 -9 0 -4 20 -4 45 2 41 10 44 12 38 36 -3 14 -12 33 -20 43 -8
9 -16 22 -17 30 -15 63 -20 79 -28 84 -6 4 -14 1 -18 -6 -9 -14 -57 30 -70 66
-6 14 -18 24 -30 24 -11 0 -19 3 -19 8 1 4 1 76 0 160 -1 128 -3 152 -16 152
-9 0 -15 9 -15 22 l0 21 -23 -21 c-49 -46 -71 -13 -72 110 0 48 -3 84 -6 80
-13 -14 -50 -193 -61 -297 -9 -80 -14 -100 -21 -83 -11 31 0 139 29 278 20 96
24 144 24 288 l0 173 50 202 c27 111 68 252 90 312 47 125 103 314 126 425 8
41 22 80 30 87 9 6 15 15 15 20 -2 34 43 69 75 56 10 -3 24 3 38 18 21 23 96
151 96 163 0 4 -14 -1 -31 -10 -19 -9 -28 -11 -24 -4 5 8 3 11 -6 8 -8 -3 -14
-11 -14 -19 0 -7 -9 -15 -20 -17 -11 -2 -25 -9 -32 -14 -7 -5 -17 -7 -22 -3
-6 3 -20 -4 -32 -16 -13 -13 -28 -19 -42 -15 -12 3 -32 -3 -49 -15 -15 -11
-32 -17 -38 -14 -6 3 -13 -1 -16 -9 -9 -22 -73 -21 -90 2 -7 9 -18 17 -25 17
-6 0 -20 16 -30 35 -15 27 -19 56 -19 128 0 85 2 95 24 117 13 13 43 29 67 35
24 6 54 15 67 20 13 6 27 8 32 5 4 -3 10 2 14 10 3 8 13 15 23 15 10 0 32 9
49 19 21 13 36 16 47 9 13 -7 15 -5 11 6 -3 7 -1 17 5 21 6 3 11 1 11 -6 0 -7
9 -4 23 8 31 29 135 74 175 76 17 0 32 4 32 8 0 12 59 38 65 29 3 -5 19 -1 37
7 33 17 53 21 128 27 43 3 46 5 75 59 16 31 26 59 22 64 -5 4 -13 1 -18 -7 -8
-11 -12 -12 -16 -2 -7 17 -23 15 -23 -4 0 -10 -7 -14 -17 -12 -10 2 -17 10
-15 17 1 7 -5 11 -15 9 -10 -1 -24 1 -31 6 -8 4 -23 1 -37 -8 -22 -15 -24 -14
-27 7 -4 29 -22 29 -26 0 -2 -13 -6 -23 -9 -23 -16 0 -73 34 -73 44 0 6 -12
22 -26 36 -24 23 -26 28 -19 80 5 30 7 70 6 88 0 17 4 32 9 32 6 0 10 7 10 16
0 10 -5 14 -16 10 -29 -11 -4 12 32 29 29 13 59 16 147 14 125 -3 137 -5 137
-25 0 -19 16 -18 24 1 3 9 18 15 40 15 26 0 34 -4 30 -14 -3 -7 2 -16 10 -19
9 -4 15 -1 13 5 -1 6 4 13 11 15 6 3 12 -1 12 -9 0 -7 15 -27 33 -43 18 -16
24 -26 13 -22 -15 6 -17 4 -12 -17 4 -15 1 -27 -7 -30 -9 -5 -9 -7 1 -12 6 -3
12 -13 13 -22 0 -11 2 -12 6 -4 2 6 9 10 13 7 5 -3 51 34 102 83 51 48 106 98
122 110 l29 22 -887 0 -886 0 0 -2560z m947 -1996 c-3 -3 -12 -4 -19 -1 -8 3
-5 6 6 6 11 1 17 -2 13 -5z"/>
<path d="M3244 5105 c8 -8 24 -15 35 -15 11 0 23 -4 26 -10 3 -5 11 -10 17
-10 6 0 1 11 -12 25 -15 16 -34 25 -52 25 -26 0 -28 -2 -14 -15z"/>
<path d="M3366 5098 c51 -62 72 -81 107 -99 20 -11 37 -27 37 -36 0 -16 1 -16
13 0 6 9 32 19 56 23 l43 7 100 -104 c55 -57 127 -138 159 -179 32 -41 67 -85
79 -98 86 -96 342 -480 393 -592 4 -8 18 -33 32 -55 13 -22 61 -112 106 -201
81 -160 82 -161 108 -151 l27 10 -4 123 c-4 120 -4 124 16 124 41 0 53 -32 77
-205 11 -84 17 -111 35 -160 22 -62 61 -252 100 -495 74 -463 83 -553 54 -564
-11 -4 -14 0 -12 16 2 12 -3 23 -11 26 -10 3 -12 0 -8 -12 4 -9 3 -26 -2 -38
-7 -19 -10 -13 -20 37 -7 33 -16 80 -21 105 -5 25 -23 131 -40 235 -16 105
-35 215 -42 245 l-12 55 -6 -37 c-4 -21 -16 -46 -27 -56 l-21 -17 39 -153 c45
-177 78 -352 81 -436 2 -45 -1 -61 -15 -71 -15 -10 -17 -32 -17 -156 -1 -79
-5 -202 -10 -274 -6 -71 -13 -182 -16 -245 -8 -127 -22 -201 -41 -208 -7 -2
-13 4 -13 13 0 14 -3 15 -13 6 -21 -17 -27 -3 -27 68 -1 65 -1 66 -16 37 -12
-22 -21 -27 -40 -23 l-24 4 -2 -411 -3 -411 -40 -8 c-22 -5 -48 -13 -57 -18
-10 -5 -27 -9 -38 -9 -11 0 -20 -4 -20 -9 0 -14 -52 -23 -63 -12 -16 16 -27
13 -27 -4 0 -10 -7 -15 -17 -13 -12 2 -17 -3 -15 -14 2 -10 -2 -18 -8 -18 -5
0 -10 7 -10 16 0 14 -2 14 -15 0 -8 -8 -15 -18 -15 -23 0 -10 -87 -48 -103
-44 -5 1 -6 -3 -3 -8 7 -11 -48 -41 -75 -41 -9 0 -20 6 -23 13 -3 8 -8 7 -16
-5 -6 -10 -17 -18 -25 -18 -8 0 -17 -5 -21 -12 -5 -8 -2 -9 9 -5 10 3 17 2 17
-3 0 -6 -15 -10 -32 -10 -22 0 -28 -3 -20 -9 10 -6 7 -15 -16 -40 -31 -35 -78
-63 -192 -117 -41 -20 -86 -42 -100 -49 -25 -13 -201 -74 -230 -80 -8 -2 -49
-16 -90 -33 l-75 -30 -3 -51 c-4 -62 7 -59 -207 -64 -88 -3 -171 -9 -185 -15
-18 -8 304 -11 1123 -11 l1147 -1 0 2560 0 2560 -887 0 -886 0 19 -22z"/>
<path d="M2086 5012 c-10 -20 -25 -48 -33 -62 -7 -14 -19 -38 -25 -53 -11 -30
-35 -77 -88 -170 l-32 -58 -57 7 c-31 3 -63 12 -71 18 -28 22 -67 38 -85 34
-9 -1 -47 -39 -83 -83 -63 -76 -63 -78 -16 -32 53 50 101 65 89 27 -5 -16 -2
-20 15 -20 47 0 51 -80 4 -88 -20 -4 -164 -146 -225 -222 -37 -47 -169 -238
-169 -246 0 -11 42 41 82 102 50 76 163 204 181 204 7 0 36 25 66 55 58 59 77
68 66 34 -5 -15 -4 -19 5 -14 9 6 9 3 1 -13 -6 -12 -16 -24 -21 -27 -6 -4 -23
-25 -37 -48 -14 -23 -58 -78 -98 -122 -113 -125 -293 -375 -272 -375 3 0 51
60 106 133 135 179 197 250 221 254 25 4 20 -7 -21 -52 -35 -38 -178 -205
-203 -236 -25 -33 -124 -186 -144 -223 -10 -17 -27 -45 -39 -63 -13 -17 -23
-35 -23 -40 0 -5 -11 -20 -24 -32 -13 -12 -31 -37 -41 -55 -14 -25 -23 -32
-40 -28 -19 3 -25 -5 -44 -60 -13 -34 -29 -72 -36 -83 -7 -11 -15 -34 -19 -52
-4 -17 -14 -34 -21 -37 -16 -6 -18 -76 -3 -76 5 0 6 15 3 34 -6 28 -4 34 14
39 24 6 24 7 11 -29 -10 -25 -7 -24 25 11 19 22 35 42 35 45 0 3 9 15 19 27
10 11 26 34 35 51 9 17 35 55 59 84 23 29 55 74 69 99 45 78 139 209 149 209
5 0 9 6 9 14 0 8 8 21 18 28 10 7 44 46 75 87 32 40 57 70 57 66 0 -5 13 11
29 35 30 45 209 230 223 230 4 0 8 -4 8 -10 0 -5 -5 -10 -11 -10 -5 0 -7 -5
-4 -10 4 -6 1 -17 -5 -25 -10 -11 -10 -15 -1 -15 7 0 10 -4 6 -10 -3 -5 -12
-7 -21 -3 -8 3 -14 2 -13 -3 4 -24 -8 -41 -91 -128 -49 -52 -90 -99 -90 -103
0 -9 133 126 255 259 44 49 82 83 83 78 2 -6 -17 -44 -42 -84 -25 -41 -46 -79
-46 -86 0 -15 -137 -194 -245 -320 -218 -256 -271 -331 -369 -527 -92 -184
-110 -249 -104 -381 5 -101 8 -112 46 -187 23 -44 42 -98 44 -120 2 -26 10
-46 24 -57 12 -10 26 -30 33 -45 6 -15 25 -36 41 -45 17 -9 30 -25 30 -36 0
-33 -71 -99 -119 -112 -42 -11 -55 -10 -121 6 -24 5 -24 5 -6 -10 11 -9 34
-16 52 -16 19 0 34 -6 38 -15 3 -8 15 -15 28 -15 33 0 169 70 200 104 l27 28
7 -26 c15 -63 -25 -195 -88 -288 -21 -31 -38 -64 -38 -72 0 -21 -52 -46 -78
-39 -13 3 -22 1 -22 -6 0 -26 79 -14 103 15 10 13 28 24 39 24 17 0 18 -2 8
-15 -10 -12 -9 -15 7 -15 27 0 35 -10 21 -27 -18 -22 -3 -25 17 -3 10 11 13
20 7 20 -16 0 -15 20 1 21 6 0 30 22 52 49 22 27 44 49 48 49 5 1 7 -28 5 -64
-1 -36 -6 -65 -10 -65 -5 0 -8 -7 -8 -15 0 -8 -4 -15 -10 -15 -5 0 -10 -6 -10
-13 0 -7 -16 -28 -35 -47 -19 -19 -35 -39 -35 -45 0 -7 -11 -18 -25 -25 -30
-16 -23 -30 14 -30 45 0 129 76 150 136 7 21 21 57 31 79 10 22 20 47 23 55 4
8 6 -16 6 -55 -1 -67 2 -91 16 -137 5 -14 -3 -29 -34 -57 -46 -43 -50 -51 -20
-51 29 0 58 17 102 58 l37 36 0 -33 c0 -22 4 -31 13 -29 21 8 54 65 61 110 6
35 9 40 17 26 15 -26 7 -154 -8 -151 -7 2 -13 -4 -13 -12 0 -8 -5 -15 -11 -15
-5 0 -34 -11 -62 -24 -29 -14 -65 -27 -82 -29 -32 -6 -100 -29 -131 -45 -53
-27 -74 -34 -89 -28 -9 3 -14 2 -11 -3 7 -11 -116 -71 -147 -71 -9 0 -19 -5
-22 -10 -4 -6 -10 -8 -14 -6 -4 3 -13 0 -21 -5 -11 -7 4 -9 47 -4 55 5 62 4
67 -13 4 -11 4 -26 1 -35 -4 -8 -2 -18 3 -21 5 -3 6 -23 3 -43 -8 -44 -4 -73
10 -73 6 0 8 -4 4 -9 -3 -6 -44 -7 -98 -4 -50 3 -102 5 -115 5 -15 0 -26 8
-32 23 -11 29 -16 157 -7 172 12 19 -7 23 -37 8 -16 -8 -32 -12 -37 -9 -12 7
-11 -4 6 -51 8 -22 14 -60 15 -85 0 -40 -4 -48 -49 -91 -27 -26 -52 -56 -56
-68 -3 -11 -11 -21 -17 -21 -6 0 -8 -12 -4 -31 5 -26 1 -36 -28 -63 -18 -17
-45 -39 -59 -49 -15 -10 -27 -22 -27 -28 0 -15 43 -28 57 -17 9 7 14 2 18 -19
12 -53 14 -55 37 -46 46 16 168 -2 168 -26 0 -3 40 -29 90 -56 l90 -50 0 -53
c0 -29 6 -59 12 -66 14 -13 81 -46 94 -46 4 0 15 -7 24 -15 10 -9 57 -37 106
-63 138 -73 131 -67 115 -94 -7 -13 -10 -20 -6 -16 4 4 17 3 28 -3 12 -7 17
-7 13 -1 -3 6 0 12 6 15 19 7 100 -83 88 -98 -10 -12 5 -30 39 -50 10 -6 12
-4 6 4 -6 10 -3 11 11 3 14 -7 25 -6 39 4 10 8 27 14 36 14 10 0 30 5 46 12
15 6 30 12 33 13 85 21 151 62 142 89 -2 5 4 6 13 3 10 -4 15 -1 15 11 0 11 3
13 8 5 8 -12 36 -12 49 1 4 4 1 11 -7 16 -12 8 -10 10 8 10 18 0 22 -4 18 -18
-5 -16 -2 -18 23 -14 20 3 28 8 24 18 -6 16 23 19 45 5 15 -9 43 -4 215 40 23
6 54 11 70 10 15 0 27 4 27 9 0 5 7 7 15 4 8 -4 15 -1 15 5 0 6 5 11 11 11 6
0 9 -7 5 -15 -6 -18 29 -21 40 -4 3 6 16 9 28 7 12 -3 28 1 34 9 17 17 41 17
48 -2 9 -22 26 -18 19 4 -3 11 0 21 8 24 19 7 41 -8 33 -22 -9 -14 0 -14 24
-1 16 8 18 7 14 -4 -9 -24 57 -10 123 26 62 34 83 51 83 66 0 6 7 12 15 16 8
3 15 12 15 20 0 7 8 17 18 21 35 14 137 33 140 25 2 -4 12 -6 22 -3 11 3 17 9
15 14 -3 4 8 15 25 24 17 9 30 11 30 5 0 -5 7 -10 16 -10 9 0 14 6 11 13 -2 6
10 18 26 24 38 17 48 16 41 -2 -9 -22 9 -18 26 4 7 11 17 18 21 15 4 -2 10 0
14 6 4 6 11 8 16 4 6 -3 19 2 29 11 12 11 29 16 44 13 14 -3 23 -2 21 3 -7 10
102 34 134 31 13 -2 27 2 31 8 5 9 9 9 14 1 4 -6 2 -11 -3 -11 -6 0 -11 -5
-11 -10 0 -18 54 1 78 27 21 23 22 23 22 4 0 -12 -4 -21 -10 -21 -5 0 -10 -5
-10 -10 0 -15 40 8 47 27 3 8 0 19 -8 24 -11 7 -11 9 4 9 9 0 17 -4 17 -10 0
-18 20 -11 20 8 1 16 2 16 15 -2 15 -20 35 -14 35 11 0 9 6 13 15 9 8 -3 15
-1 15 4 0 5 7 7 15 4 8 -3 39 8 70 26 31 18 63 29 71 26 9 -3 12 -2 9 4 -3 6
2 13 12 16 10 3 34 14 53 24 19 9 52 20 73 23 40 6 67 22 67 39 0 6 -11 7 -25
4 -21 -5 -25 -3 -25 18 0 27 21 36 83 36 32 0 37 3 33 18 -3 9 -17 60 -31 112
-51 183 -52 187 -96 209 -32 17 -50 20 -99 14 l-61 -6 9 24 c5 13 7 40 5 60
-3 21 0 40 6 43 6 4 11 26 11 49 0 37 -4 45 -32 62 -51 31 -100 46 -130 40
-17 -2 -28 0 -28 6 0 8 -4 8 -13 1 -15 -13 -60 -4 -51 9 3 5 -2 9 -10 9 -9 0
-16 -5 -16 -10 0 -7 -6 -7 -20 0 -14 7 -26 7 -39 1 -10 -6 -21 -7 -25 -4 -3 3
-6 -3 -6 -15 0 -26 -17 -28 -42 -5 -10 9 -18 11 -18 5 0 -5 -9 -8 -19 -5 -14
4 -20 -1 -23 -18 -2 -12 -9 -25 -17 -27 -10 -3 -12 0 -8 11 4 12 -1 17 -21 19
-20 2 -26 8 -24 22 2 11 -1 15 -8 11 -6 -4 -9 -13 -6 -20 2 -7 -7 -18 -20 -24
-22 -10 -24 -9 -15 8 9 15 6 20 -12 25 -32 8 -67 7 -67 -3 0 -4 -18 -7 -41 -6
-33 2 -39 0 -34 -13 5 -12 1 -12 -15 3 -23 21 -27 40 -6 32 10 -4 12 0 9 14
-4 13 0 19 12 19 9 0 42 13 72 30 51 28 86 41 53 20 -13 -9 -13 -10 0 -10 9 0
24 6 35 14 11 7 32 16 48 20 15 3 27 10 27 15 0 5 10 7 22 3 17 -4 20 -2 15
11 -4 12 -1 17 12 17 10 0 26 9 36 20 10 11 25 20 33 20 9 0 12 6 8 16 -5 12
-2 15 11 9 53 -21 74 -13 33 13 -11 6 -29 31 -41 54 -23 45 -35 58 -57 58 -8
0 1 -12 18 -26 17 -15 28 -30 23 -34 -16 -15 -179 -43 -258 -45 -82 -1 -155
11 -155 26 0 5 20 6 44 3 58 -8 97 1 90 21 -4 10 0 15 13 15 52 0 35 34 -36
69 -53 28 -101 75 -101 103 0 7 -12 31 -25 53 -14 22 -25 54 -25 70 0 24 7 15
37 -50 35 -77 44 -89 105 -128 l28 -19 -25 54 c-24 50 -32 109 -19 141 4 12
15 10 66 -10 50 -21 74 -24 134 -21 65 3 77 7 104 33 43 41 37 51 -14 21 -53
-31 -148 -36 -198 -10 l-30 16 48 24 c59 30 90 59 98 90 4 13 11 24 17 24 6 0
5 -8 -2 -22 -11 -23 -11 -23 15 1 25 23 26 30 26 120 0 88 2 97 21 106 12 6
33 30 46 55 14 25 31 50 39 56 24 19 34 73 34 184 0 114 -10 191 -41 315 l-20
80 23 47 c13 26 26 47 30 48 3 0 14 -23 23 -51 19 -56 21 -151 5 -194 -15 -41
-5 -41 14 -1 23 48 21 144 -5 214 -12 31 -25 75 -29 97 -12 67 -32 95 -42 63
-3 -7 -15 11 -28 40 -13 29 -27 52 -30 52 -6 0 -20 20 -103 153 -35 54 -60 80
-37 38 12 -23 13 -41 2 -41 -4 0 -42 60 -84 133 -42 72 -84 141 -93 152 -9 11
-7 3 5 -18 38 -66 15 -51 -40 25 -102 142 -83 98 28 -62 58 -85 75 -119 52
-105 -5 3 -3 -10 5 -29 19 -45 19 -46 -5 -46 -11 0 -20 5 -20 10 0 6 -5 10
-11 10 -6 0 -8 -7 -5 -16 3 -9 9 -28 12 -42 5 -24 2 -23 -35 18 -53 58 -65 72
-104 123 -18 23 -41 51 -53 63 -11 11 -28 31 -37 44 -9 13 -19 21 -23 18 -3
-4 6 -22 20 -41 14 -19 26 -40 27 -48 0 -8 14 -34 30 -59 16 -25 32 -53 35
-62 4 -10 11 -18 18 -18 11 -1 46 -67 46 -88 0 -24 -21 -11 -47 31 -15 23 -30
44 -34 47 -3 3 -21 27 -40 53 -69 97 -77 106 -84 99 -5 -4 -5 -1 -1 5 4 7 -2
23 -14 35 -12 13 -31 40 -43 61 -11 20 -24 37 -28 37 -8 0 -69 92 -69 104 0 4
4 5 9 1 5 -3 12 -1 15 4 7 11 -22 49 -93 124 -31 32 -56 64 -56 72 0 8 -17 32
-38 53 -59 60 -46 68 43 26 33 -15 56 -21 58 -15 2 6 8 11 13 11 6 0 7 -5 3
-12 -5 -8 -2 -9 9 -5 11 4 35 -8 70 -36 28 -23 70 -55 92 -72 68 -51 348 -336
417 -425 59 -76 148 -212 148 -226 0 -5 73 -105 98 -134 19 -21 7 0 -37 69
-19 30 -47 79 -62 109 -67 126 -203 303 -361 466 -53 56 -95 102 -93 104 2 2
47 -30 99 -73 105 -84 208 -191 263 -273 19 -29 37 -51 40 -48 3 2 -19 40 -48
82 -68 99 -206 236 -329 327 -52 39 -110 82 -129 96 -18 14 -41 31 -50 36 -9
6 -32 22 -51 37 -19 14 -52 33 -72 41 -20 9 -43 25 -50 36 -7 12 -18 21 -25
21 -7 0 -13 6 -13 13 -1 19 -96 97 -132 108 -18 5 -69 9 -113 9 l-80 -1 28
-24 c23 -20 25 -25 10 -25 -10 0 -37 11 -60 24 -57 33 -106 48 -157 48 -36 0
-52 7 -92 39 -100 82 -142 113 -180 132 l-30 16 -18 -37z m80 -29 c24 -16 44
-32 44 -36 0 -5 -16 1 -35 13 -19 12 -38 19 -43 16 -4 -2 -13 4 -20 15 -18 28
2 25 54 -8z m74 -180 c0 -5 14 -17 30 -28 16 -11 30 -26 30 -33 0 -7 4 -11 8
-8 10 6 52 -38 52 -54 0 -6 4 -9 9 -7 12 3 84 -59 209 -180 53 -51 100 -89
105 -86 6 3 7 1 3 -5 -3 -6 2 -15 11 -21 10 -6 14 -11 10 -11 -4 0 23 -35 60
-77 128 -146 269 -344 278 -391 3 -15 12 -38 20 -52 7 -14 34 -61 58 -105 25
-44 48 -91 52 -105 7 -23 7 -23 -9 -7 -10 9 -21 17 -26 17 -13 0 0 -37 21 -56
10 -9 19 -23 19 -31 0 -7 4 -13 10 -13 5 0 15 -10 21 -22 12 -22 11 -22 -6 -8
-17 14 -18 14 -5 -10 7 -14 16 -27 19 -30 3 -3 12 -15 19 -27 10 -20 10 -23
-4 -23 -18 0 -38 22 -93 100 -42 60 -68 86 -77 77 -7 -6 10 -39 29 -59 7 -7
22 -26 32 -43 11 -16 25 -37 32 -45 58 -66 115 -158 107 -172 -8 -13 -31 9
-70 67 -18 29 -47 66 -64 83 -16 18 -30 36 -30 41 0 5 -7 15 -16 22 -9 8 -48
61 -87 119 -39 58 -94 137 -122 175 -66 90 -143 202 -273 395 -57 85 -117 169
-133 185 -16 17 -29 34 -29 37 0 4 -11 19 -25 34 -24 26 -34 51 -16 40 15 -10
-11 56 -36 91 -29 40 -31 63 -3 38 11 -10 22 -16 25 -13 7 7 -128 166 -147
173 -19 7 -25 35 -8 35 6 0 10 -3 10 -7z m-160 -142 c0 -10 41 -53 101 -106
49 -44 112 -125 104 -133 -4 -4 -19 8 -34 26 -32 38 -41 40 -34 10 3 -13 2
-20 -2 -16 -4 4 -9 19 -10 33 -2 14 -12 35 -23 48 -89 100 -117 127 -128 123
-8 -3 -11 0 -7 10 6 15 33 20 33 5z m895 -51 c3 -5 1 -10 -4 -10 -6 0 -11 5
-11 10 0 6 2 10 4 10 3 0 8 -4 11 -10z m-295 -181 c0 -11 -98 92 -131 137 -11
16 13 -6 55 -49 42 -43 76 -83 76 -88z m191 14 c13 -16 12 -17 -3 -4 -17 13
-22 21 -14 21 2 0 10 -8 17 -17z m-546 -44 c-4 -5 1 -9 11 -9 18 0 85 -65 195
-190 109 -123 140 -165 326 -437 69 -102 72 -128 5 -35 -117 160 -140 187
-151 184 -6 -1 -14 6 -18 15 -3 10 -18 36 -33 58 -15 22 -39 58 -53 80 -15 22
-45 60 -68 85 -22 25 -63 73 -91 108 -27 34 -52 62 -54 62 -6 0 14 -37 36 -70
19 -27 189 -333 265 -475 26 -49 62 -113 80 -141 18 -28 42 -70 53 -95 11 -24
35 -64 53 -89 18 -25 35 -53 36 -63 8 -50 206 -273 313 -353 77 -57 83 -64 64
-79 -12 -8 -35 9 -117 87 -56 53 -103 95 -106 93 -2 -3 2 -17 8 -33 8 -19 11
-67 9 -131 -2 -76 0 -98 8 -86 21 29 26 15 19 -52 -9 -94 -38 -211 -64 -261
-31 -60 -51 -156 -51 -247 -1 -138 -15 -227 -39 -246 -12 -10 -21 -20 -21 -25
0 -4 -7 -12 -16 -18 -9 -7 -12 -18 -8 -29 8 -21 22 -22 46 0 10 9 21 14 24 11
3 -3 9 -52 13 -109 10 -118 11 -116 -74 -177 -27 -20 -52 -39 -55 -42 -3 -3
-32 -23 -65 -45 -33 -21 -73 -52 -90 -67 -16 -16 -58 -48 -93 -72 -35 -23 -83
-62 -107 -85 -25 -24 -45 -39 -45 -34 0 5 5 14 12 21 22 22 1 22 -28 0 l-29
-23 20 26 c11 15 27 37 35 49 8 13 32 40 53 61 20 20 37 42 37 48 0 6 5 11 10
11 6 0 10 6 9 13 -2 22 13 57 25 57 21 0 37 22 25 36 -7 8 -5 16 5 27 12 12
13 22 5 51 -10 36 0 69 37 116 31 39 74 131 74 157 0 15 5 46 11 68 8 29 8 40
0 43 -6 2 -9 9 -5 15 3 7 0 5 -8 -4 -7 -8 -21 -18 -30 -22 -10 -3 -18 -11 -18
-17 0 -5 -5 -10 -12 -10 -7 0 -30 -18 -53 -39 -54 -53 -171 -131 -206 -138
-16 -3 -27 -9 -24 -13 6 -9 -75 -20 -165 -21 -58 -1 -73 3 -132 36 -37 21 -90
59 -119 84 -56 49 -54 36 8 -50 18 -26 29 -50 24 -53 -11 -7 -12 -66 0 -66 4
0 8 -17 8 -37 0 -46 5 -80 19 -114 6 -14 7 -31 2 -39 -9 -15 -32 -4 -28 13 3
19 -12 57 -24 57 -7 0 -8 -15 -4 -42 5 -29 3 -44 -6 -50 -10 -6 -9 -11 5 -19
10 -6 17 -22 17 -39 0 -19 7 -33 20 -40 19 -10 19 -11 0 -30 -24 -24 -25 -38
-3 -62 15 -17 15 -21 3 -30 -12 -8 -11 -9 3 -4 10 3 23 6 29 6 10 0 6 146 -7
193 -5 18 -3 27 4 27 6 0 11 -6 11 -14 0 -19 40 -67 51 -61 5 4 9 16 9 27 0
18 15 18 15 0 0 -4 4 -13 9 -20 9 -16 15 -59 21 -173 4 -63 1 -96 -10 -122 -8
-20 -15 -50 -15 -66 0 -16 -6 -31 -15 -35 -8 -3 -15 -14 -15 -24 0 -15 -49
-51 -54 -40 -8 17 -28 76 -29 86 0 9 -5 8 -18 -4 -16 -14 -19 -12 -49 31 -24
35 -47 54 -87 72 -64 30 -133 95 -132 126 0 27 22 143 42 221 8 33 13 64 11
70 -2 6 -13 94 -24 196 -11 102 -30 232 -42 288 -19 91 -30 118 -89 218 -65
111 -73 132 -101 259 -12 52 -17 60 -38 63 -49 6 -78 24 -90 55 -23 63 -50
118 -92 184 -40 66 -41 71 -41 148 2 106 7 173 16 181 4 4 7 0 7 -9 0 -8 3
-17 8 -19 20 -9 112 -216 112 -253 0 -12 9 -38 20 -60 11 -22 20 -51 20 -65 0
-14 5 -32 11 -40 8 -12 10 -8 6 15 -3 17 -15 113 -27 215 -11 102 -26 208 -32
237 -15 73 -6 130 31 184 17 26 31 57 31 70 0 42 22 103 47 134 14 16 62 71
107 120 46 50 112 124 148 165 88 100 141 142 176 139 15 -2 33 0 40 4 8 6 12
2 12 -12 0 -11 5 -23 10 -26 6 -3 10 -1 10 6 0 7 12 2 26 -12 24 -22 26 -23
24 -4 -1 11 -2 29 -1 40 2 20 2 20 17 0 12 -16 17 -17 23 -6 7 10 12 8 24 -9
14 -21 16 -21 26 -3 9 16 12 16 21 3 10 -13 12 -13 22 1 10 15 14 13 32 -14
19 -28 58 -55 42 -28 -5 7 1 11 13 11 24 0 25 4 10 31 -6 11 -8 25 -6 32 2 7
18 -12 36 -40 18 -29 38 -53 44 -54 7 0 56 -67 109 -149 54 -81 129 -191 168
-243 38 -52 70 -99 70 -103 0 -5 -35 -9 -77 -9 -84 0 -227 -30 -249 -52 -8 -8
-18 -11 -24 -8 -16 10 -12 -18 7 -45 22 -33 35 -41 53 -34 46 18 278 64 298
59 13 -3 22 -13 22 -25 0 -21 -10 -25 -103 -45 -25 -5 -41 -15 -47 -29 -4 -11
-35 -50 -69 -85 -34 -35 -60 -69 -58 -75 7 -20 24 -16 37 10 17 30 104 84 138
84 19 0 22 -5 22 -42 1 -24 7 -54 15 -68 21 -37 19 -40 -32 -41 -87 -1 -9 -21
87 -23 93 -1 170 21 202 56 16 18 16 22 3 35 -13 13 -19 10 -49 -21 -18 -20
-42 -36 -52 -36 -18 1 -18 1 1 11 11 6 36 29 57 51 l36 39 -55 77 c-30 42 -58
83 -60 90 -3 6 -11 12 -18 12 -7 0 -29 20 -49 45 -37 44 -37 65 -1 25 34 -37
27 -12 -18 72 -25 46 -61 120 -81 165 -19 45 -56 119 -82 165 -175 309 -223
389 -260 432 -24 27 -41 53 -38 58 3 5 10 6 15 2 5 -3 7 -10 4 -15z m590 1
c27 -30 12 -34 -15 -5 -13 14 -19 25 -13 25 5 0 18 -9 28 -20z m-1122 -54
c-38 -33 -43 -23 -7 15 16 16 30 25 32 20 2 -6 -9 -22 -25 -35z m1212 -170
c10 -15 15 -30 11 -34 -4 -3 -11 -1 -15 6 -8 14 -70 88 -118 143 -18 20 -33
40 -33 45 1 11 132 -125 155 -160z m-46 -1 c36 -40 62 -85 56 -95 -4 -6 -1 -9
7 -8 8 2 12 -5 10 -19 -3 -18 1 -21 13 -17 12 5 16 2 13 -12 -2 -11 2 -18 9
-17 7 2 10 -3 7 -10 -4 -13 11 -45 61 -132 25 -43 26 -47 7 -31 -12 11 -22 23
-22 27 0 12 -147 226 -222 324 -24 31 -88 134 -88 141 0 7 85 -79 149 -151z
m41 135 c0 -5 -4 -10 -10 -10 -5 0 -10 5 -10 10 0 6 5 10 10 10 6 0 10 -4 10
-10z m-1413 -187 c-15 -21 -35 -49 -44 -63 -10 -14 -54 -72 -98 -130 -43 -58
-106 -140 -138 -182 -32 -43 -66 -83 -76 -90 -9 -7 -21 -22 -24 -32 -4 -10
-10 -16 -13 -13 -4 3 10 33 30 65 20 33 36 64 36 70 0 6 4 12 8 14 4 2 20 23
34 48 14 25 35 54 45 65 60 67 103 116 138 159 71 86 118 137 123 131 3 -2 -7
-22 -21 -42z m1633 -122 c25 -39 48 -71 53 -71 4 0 7 -8 7 -17 0 -9 7 -24 16
-34 10 -11 14 -25 9 -36 -6 -16 -8 -16 -15 3 -5 12 -13 25 -19 29 -6 3 -11 14
-11 25 0 10 -7 20 -15 24 -8 3 -15 12 -15 21 0 8 -3 15 -8 15 -4 0 -12 8 -17
19 -6 10 -26 43 -46 72 -19 30 -39 63 -43 74 -12 34 55 -47 104 -124z m-435
-202 c67 -107 87 -152 37 -83 -40 55 -112 176 -112 188 0 14 5 7 75 -105z
m425 71 c14 -11 21 -20 16 -20 -5 0 2 -10 15 -23 13 -12 31 -36 39 -52 8 -17
22 -35 30 -42 8 -6 12 -15 8 -19 -10 -9 -38 15 -38 33 0 8 -4 12 -9 9 -5 -4
-12 7 -16 24 -4 17 -11 28 -16 25 -5 -4 -14 5 -21 19 -6 14 -17 26 -25 26 -7
0 -13 2 -13 4 0 2 -3 11 -6 20 -8 21 6 20 36 -4z m486 -100 c13 -25 40 -64 59
-88 35 -44 43 -78 29 -129 -8 -31 -22 -29 -30 3 l-7 27 -12 -23 c-11 -20 -13
-16 -18 38 -6 56 -60 226 -78 247 -5 5 -9 14 -9 20 0 12 32 -34 66 -95z m-361
40 c3 -5 1 -10 -4 -10 -6 0 -11 5 -11 10 0 6 2 10 4 10 3 0 8 -4 11 -10z m175
-115 c12 -24 20 -53 18 -62 -2 -11 -11 1 -23 32 -10 28 -23 56 -28 63 -6 8 -6
12 1 12 6 0 20 -20 32 -45z m-591 -99 c-3 -3 -11 5 -18 17 -13 21 -12 21 5 5
10 -10 16 -20 13 -22z m87 -124 c38 -53 92 -129 121 -168 29 -39 53 -74 53
-79 0 -19 204 -278 260 -330 32 -30 32 -30 25 -5 -11 37 -36 84 -99 185 -31
50 -62 101 -68 115 -7 14 -17 28 -22 32 -11 8 -16 47 -6 53 10 6 93 -111 139
-196 37 -69 101 -237 101 -267 0 -7 -25 8 -55 33 -30 24 -73 55 -95 67 -39 22
-57 54 -24 41 14 -5 15 -3 5 15 -12 23 -196 277 -291 402 -32 42 -68 98 -80
125 -12 28 -29 54 -36 58 -8 4 -14 13 -14 18 0 20 20 -3 86 -99z m-253 -232
c3 8 7 22 10 30 3 9 8 4 12 -15 11 -41 27 -55 48 -43 9 5 17 16 17 25 0 12 3
13 14 3 21 -17 11 -32 -34 -53 -36 -17 -41 -17 -69 -2 -25 13 -31 22 -31 49 0
43 13 56 21 19 4 -19 8 -23 12 -13z m282 14 c9 -15 12 -23 6 -20 -11 7 -35 46
-28 46 3 0 12 -12 22 -26z m722 -42 c13 -31 21 -47 19 -34 -2 12 -3 22 -1 22
11 0 37 -74 46 -130 9 -59 8 -73 -11 -123 -12 -31 -26 -59 -32 -63 -6 -4 -6 1
1 14 17 33 13 84 -18 210 -41 166 -44 178 -35 169 5 -5 19 -34 31 -65z m-380
-19 c-11 -10 -37 12 -37 31 1 21 1 21 21 -3 11 -13 18 -26 16 -28z m-1930 -35
c-3 -8 -6 -5 -6 6 -1 11 2 17 5 13 3 -3 4 -12 1 -19z m2249 -22 c8 -31 2 -71
-11 -71 -5 0 -11 21 -13 48 -3 49 13 66 24 23z m-197 -71 c0 -5 -4 -3 -9 5 -5
8 -9 22 -9 30 0 16 17 -16 18 -35z m11 -35 c0 -5 -2 -10 -4 -10 -3 0 -8 5 -11
10 -3 6 -1 10 4 10 6 0 11 -4 11 -10z m29 -114 c13 -70 14 -185 2 -205 -5 -8
-7 5 -5 34 3 43 -2 91 -22 210 -11 64 12 29 25 -39z m-129 -57 c0 -14 -11 -11
-32 8 -27 24 -22 36 7 17 14 -9 25 -20 25 -25z m305 19 c-10 -31 -25 -47 -25
-26 0 24 11 48 22 48 5 0 6 -10 3 -22z m-512 -33 c-3 -9 -8 -14 -10 -11 -3 3
-2 9 2 15 9 16 15 13 8 -4z m298 -98 c-8 -8 -11 -3 -11 19 1 25 2 27 11 11 8
-14 8 -22 0 -30z m139 -126 c0 -16 -7 -34 -15 -41 -8 -7 -15 -19 -15 -26 0
-13 -6 -16 -26 -13 -4 0 -15 -13 -25 -30 -10 -17 -23 -31 -28 -31 -5 0 -16 -3
-25 -6 -12 -4 -16 0 -16 16 0 13 19 38 48 65 26 24 54 55 62 69 18 35 40 33
40 -3z m-2416 -81 c-6 -5 -24 21 -24 34 0 6 6 1 14 -10 8 -10 12 -21 10 -24z
m73 -48 c25 -14 37 -44 28 -72 -9 -29 -17 -25 -53 26 -42 59 -32 77 25 46z
m2140 -206 c-3 -7 1 -26 9 -41 21 -40 17 -52 -7 -21 -14 18 -19 34 -15 51 4
14 9 25 12 25 3 0 4 -6 1 -14z m25 -197 l28 -27 -24 2 c-13 0 -24 4 -23 7 3
10 -56 59 -69 59 -13 0 -23 29 -16 48 2 8 17 0 40 -25 20 -21 49 -50 64 -64z
m-2071 -2 c-10 -9 -11 -8 -5 6 3 10 9 15 12 12 3 -3 0 -11 -7 -18z m1806 -9
c-3 -7 -5 -2 -5 12 0 14 2 19 5 13 2 -7 2 -19 0 -25z m110 -92 c-11 -27 -33
-18 -44 18 -6 19 -8 38 -5 41 11 11 55 -43 49 -59z m-141 -6 c48 -45 48 -45
21 -48 -15 -2 -27 -7 -27 -11 0 -5 -15 -11 -32 -14 -18 -3 -40 -8 -49 -12 -20
-8 -59 30 -59 57 0 17 3 17 33 -6 49 -37 68 -35 56 6 -12 42 -12 81 0 76 5 -1
31 -23 57 -48z m-1515 -163 c-8 -8 -11 -7 -11 4 0 9 3 19 7 23 4 4 9 2 11 -4
3 -7 -1 -17 -7 -23z m1914 -97 c-3 -5 -13 -10 -21 -10 -8 0 -14 5 -14 10 0 6
9 10 21 10 11 0 17 -4 14 -10z m425 -20 c0 -5 -4 -10 -10 -10 -5 0 -10 5 -10
10 0 6 5 10 10 10 6 0 10 -4 10 -10z m-175 -22 c-19 -11 -30 -5 -21 11 4 6 14
7 22 4 15 -5 14 -7 -1 -15z m-1185 -2 c0 -3 -4 -8 -10 -11 -5 -3 -10 -1 -10 4
0 6 5 11 10 11 6 0 10 -2 10 -4z m1357 -74 c-10 -10 -17 -26 -17 -36 0 -13 -7
-17 -27 -14 -22 2 -28 8 -28 28 -1 31 11 40 54 40 32 0 33 -1 18 -18z m-97
-12 c0 -11 -40 -34 -47 -27 -7 7 30 45 40 40 4 -2 7 -8 7 -13z m-65 -11 c11
-16 1 -20 -36 -12 -33 7 -33 7 -9 14 36 10 38 10 45 -2z m-35 -29 c0 -5 -2
-10 -4 -10 -3 0 -8 5 -11 10 -3 6 -1 10 4 10 6 0 11 -4 11 -10z m226 -32 c3
-26 -12 -31 -46 -16 -34 15 -41 33 -10 25 11 -3 20 -1 20 5 0 17 33 4 36 -14z
m-49 -34 c-3 -3 -12 -4 -19 -1 -8 3 -5 6 6 6 11 1 17 -2 13 -5z m-2622 -244
c3 -5 1 -10 -4 -10 -6 0 -11 5 -11 10 0 6 2 10 4 10 3 0 8 -4 11 -10z m-215
-29 c23 -10 48 -30 55 -45 12 -22 11 -28 -5 -48 -19 -24 -12 -54 16 -71 16 -9
7 -37 -19 -58 -19 -15 -25 -15 -86 2 -36 11 -68 24 -69 29 -7 20 -35 41 -47
36 -21 -8 -55 32 -55 64 0 17 5 30 11 30 5 0 8 4 5 8 -3 5 17 19 44 33 27 13
50 27 50 32 0 14 58 7 100 -12z m3090 -123 c-65 -10 -82 -14 -114 -27 -44 -18
-55 -7 -16 14 35 18 146 35 165 26 6 -3 -10 -9 -35 -13z m-42 -84 c-19 -20
-81 -28 -75 -10 2 6 9 11 15 11 5 0 13 2 16 5 3 3 17 7 33 8 25 2 26 1 11 -14z
m-348 2 c0 -7 -63 -43 -87 -51 -14 -4 -23 -2 -23 4 0 6 12 14 28 17 15 4 36
13 47 20 19 14 35 18 35 10z m-2678 -154 c7 -7 17 -12 24 -12 6 0 17 -7 24
-15 10 -12 10 -15 -3 -15 -8 0 -20 7 -27 15 -7 8 -16 13 -20 10 -12 -8 -62 14
-56 23 7 12 44 8 58 -6z"/>
<path d="M2580 4458 c0 -3 16 -25 35 -48 19 -23 35 -38 35 -33 0 11 -69 91
-70 81z"/>
<path d="M1696 3531 c-60 -9 -56 -28 6 -33 60 -5 188 -59 162 -68 -12 -4 -6
-11 20 -25 50 -27 45 -38 -11 -28 -79 13 -133 6 -200 -27 -65 -32 -71 -38 -52
-57 7 -7 21 -5 47 7 20 10 59 21 86 25 l49 7 -7 -41 c-8 -49 17 -117 46 -127
11 -3 55 -3 98 1 58 5 77 10 74 20 -9 21 16 28 36 10 17 -16 18 -15 25 14 4
20 1 38 -11 56 -27 41 -6 43 32 3 19 -21 34 -34 34 -30 0 4 -6 14 -12 20 -10
10 -10 15 2 22 13 8 13 13 -2 40 -9 16 -13 30 -9 30 10 0 7 93 -4 132 -4 18
-13 26 -26 25 -10 -1 -19 -6 -19 -12 0 -5 -7 -2 -14 7 -7 10 -15 16 -18 13 -3
-3 -27 2 -54 10 -50 15 -200 18 -278 6z m362 -169 c2 -7 -12 -3 -32 9 -20 11
-36 23 -36 25 0 9 64 -23 68 -34z m-178 -111 c0 -38 15 -47 44 -28 17 12 26
13 35 4 8 -8 11 -7 11 7 0 9 5 14 10 11 32 -20 -31 -65 -92 -65 -79 0 -93 93
-15 99 4 1 7 -12 7 -28z"/>
<path d="M2361 3475 c-1 -31 14 -64 23 -54 4 3 0 23 -8 45 -14 38 -15 38 -15
9z"/>
<path d="M1630 3262 c0 -13 42 -47 75 -61 26 -11 24 -8 -15 28 -45 40 -60 48
-60 33z"/>
<path d="M3005 3190 c3 -5 8 -10 11 -10 2 0 4 5 4 10 0 6 -5 10 -11 10 -5 0
-7 -4 -4 -10z"/>
<path d="M2343 2695 c-15 -13 -23 -25 -17 -25 18 0 74 31 74 41 0 17 -29 9
-57 -16z"/>
<path d="M2645 2470 c-4 -7 -69 -10 -185 -8 -135 2 -182 0 -192 -10 -10 -10
-3 -12 42 -11 79 4 170 -3 176 -12 6 -11 -24 -26 -69 -34 -20 -4 -37 -12 -37
-17 0 -15 94 -1 150 22 25 10 66 25 93 35 26 9 47 21 47 25 0 14 -18 21 -25
10z"/>
<path d="M1900 2459 c0 -6 69 -33 110 -43 8 -3 35 -14 60 -25 47 -21 100 -28
100 -12 0 5 -16 15 -35 21 -19 6 -35 17 -35 24 0 16 68 27 119 19 30 -5 34 -3
23 8 -10 11 -51 14 -177 14 -91 0 -165 -3 -165 -6z"/>
<path d="M1985 1800 c-3 -5 -1 -10 4 -10 6 0 11 5 11 10 0 6 -2 10 -4 10 -3 0
-8 -4 -11 -10z"/>
<path d="M2121 1464 c0 -11 3 -14 6 -6 3 7 2 16 -1 19 -3 4 -6 -2 -5 -13z"/>
<path d="M1125 4840 c3 -5 8 -10 11 -10 2 0 4 5 4 10 0 6 -5 10 -11 10 -5 0
-7 -4 -4 -10z"/>
<path d="M1251 4607 c-6 -8 -8 -17 -4 -20 7 -8 33 11 33 24 0 13 -16 11 -29
-4z"/>
<path d="M1095 4560 c-3 -5 -1 -10 4 -10 6 0 11 5 11 10 0 6 -2 10 -4 10 -3 0
-8 -4 -11 -10z"/>
<path d="M986 4542 c-3 -6 -1 -14 5 -17 15 -10 25 3 12 16 -7 7 -13 7 -17 1z"/>
<path d="M840 4465 c0 -8 4 -15 10 -15 5 0 7 7 4 15 -4 8 -8 15 -10 15 -2 0
-4 -7 -4 -15z"/>
<path d="M3230 4356 c0 -2 8 -10 18 -17 15 -13 16 -12 3 4 -13 16 -21 21 -21
13z"/>
<path d="M935 4340 c-3 -5 -1 -10 4 -10 6 0 11 5 11 10 0 6 -2 10 -4 10 -3 0
-8 -4 -11 -10z"/>
<path d="M3090 4282 c14 -17 31 -33 39 -37 8 -3 3 9 -11 27 -14 17 -31 34 -38
36 -8 3 -3 -9 10 -26z"/>
<path d="M880 4209 c0 -5 5 -7 10 -4 6 3 10 8 10 11 0 2 -4 4 -10 4 -5 0 -10
-5 -10 -11z"/>
<path d="M3190 4214 c0 -5 7 -18 15 -28 8 -11 15 -16 15 -10 0 5 -7 18 -15 28
-8 11 -15 16 -15 10z"/>
<path d="M1156 4009 c-10 -22 -16 -42 -14 -45 3 -2 13 14 23 36 10 22 16 42
13 45 -2 3 -12 -14 -22 -36z"/>
<path d="M785 3961 c-3 -5 -1 -12 5 -16 5 -3 10 1 10 9 0 18 -6 21 -15 7z"/>
<path d="M1106 3899 c-9 -23 -15 -43 -13 -46 3 -2 12 15 21 38 9 23 15 43 13
46 -3 2 -12 -15 -21 -38z"/>
<path d="M1145 3900 c-3 -5 -1 -10 4 -10 6 0 11 5 11 10 0 6 -2 10 -4 10 -3 0
-8 -4 -11 -10z"/>
<path d="M1058 3716 c-13 -18 -41 -58 -64 -87 -58 -79 -98 -146 -122 -212 -12
-31 -21 -59 -21 -62 0 -3 -2 -18 -5 -33 -3 -15 -2 -40 3 -57 5 -16 10 -24 10
-17 1 7 5 11 10 8 8 -5 21 71 21 129 0 56 124 265 157 265 6 0 15 5 19 12 8
13 23 88 18 88 -2 0 -14 -15 -26 -34z"/>
<path d="M1360 3590 c-30 -28 -60 -48 -66 -46 -7 3 -20 -4 -30 -15 -16 -18
-16 -19 -1 -13 9 3 17 11 17 17 0 6 3 8 6 4 7 -7 -112 -166 -138 -185 -10 -7
-18 -20 -18 -29 0 -9 -6 -13 -15 -10 -17 7 -87 -111 -130 -219 -27 -67 -49
-202 -35 -217 8 -9 15 14 25 86 8 51 25 65 25 20 0 -16 7 -41 15 -57 8 -15 15
-41 15 -55 0 -61 15 -37 27 43 15 108 51 215 115 341 47 94 165 279 224 353
37 45 27 40 -36 -18z"/>
<path d="M4062 3220 c0 -14 2 -19 5 -12 2 6 2 18 0 25 -3 6 -5 1 -5 -13z"/>
<path d="M919 3163 c-6 -21 -22 -59 -34 -85 -16 -32 -18 -45 -9 -41 8 3 14 10
14 17 0 6 5 4 10 -4 8 -12 10 -9 10 13 0 15 7 41 15 57 30 58 36 80 21 80 -8
0 -20 -17 -27 -37z"/>
<path d="M4350 3157 c0 -4 6 -23 14 -42 12 -28 12 -33 1 -29 -18 7 -33 -82
-16 -99 9 -9 13 -6 18 11 5 22 7 22 24 6 16 -14 21 -15 34 -4 13 11 16 11 13
-1 -2 -9 4 -13 20 -11 15 2 22 -2 22 -12 0 -9 5 -16 10 -16 14 0 12 83 -2 103
-15 20 -33 11 -47 -23 -9 -24 -10 -24 -10 8 -1 17 -5 32 -11 32 -5 0 -10 6
-10 13 0 7 -13 26 -30 42 -16 16 -30 26 -30 22z"/>
<path d="M4168 3079 c-10 -5 -18 -22 -18 -36 l0 -27 -20 22 c-22 23 -29 26
-54 16 -19 -7 -20 -34 -5 -87 8 -31 14 -38 32 -35 12 2 28 16 36 32 10 21 15
25 22 15 10 -16 60 -2 67 20 4 11 -2 13 -27 8 -19 -4 -31 -2 -31 4 0 6 5 7 10
4 6 -3 13 1 17 10 3 10 0 21 -8 26 -10 6 -10 9 -1 9 6 0 12 7 12 15 0 17 -8
18 -32 4z m-54 -72 c8 -12 7 -20 -2 -29 -14 -14 -17 -11 -26 25 -8 32 9 34 28
4z"/>
<path d="M4236 3074 c-10 -26 -7 -62 6 -70 6 -4 14 -2 16 5 3 9 10 7 24 -5 16
-16 21 -16 29 -4 13 21 7 83 -10 88 -10 3 -12 -2 -7 -22 8 -34 -11 -35 -26 -1
-13 29 -23 32 -32 9z"/>
<path d="M896 3021 c-4 -7 -5 -15 -2 -18 9 -9 19 4 14 18 -4 11 -6 11 -12 0z"/>
<path d="M834 2954 c-19 -68 -15 -144 13 -201 l18 -38 3 50 c2 28 -4 75 -13
106 -15 47 -15 63 -5 93 7 21 10 40 7 43 -3 3 -13 -21 -23 -53z m3 -111 c-3
-10 -5 -4 -5 12 0 17 2 24 5 18 2 -7 2 -21 0 -30z"/>
<path d="M4172 2899 c-69 -34 -134 -101 -165 -168 -16 -38 -19 -68 -21 -215
-1 -210 12 -267 79 -333 23 -24 42 -43 41 -44 -18 -11 -51 -4 -75 16 -22 19
-29 32 -26 53 5 39 -9 60 -28 43 -9 -6 -28 -11 -44 -9 -23 2 -29 -1 -31 -20
-2 -12 -12 -27 -23 -32 -13 -8 -19 -21 -19 -45 0 -29 4 -36 25 -41 15 -4 32
-1 40 6 17 14 20 40 5 40 -5 0 -10 5 -10 10 0 6 7 10 15 10 20 0 19 20 -2 36
-10 7 -13 14 -7 14 6 0 17 -7 24 -15 7 -8 18 -15 24 -15 12 0 36 -45 36 -67 0
-16 -22 -17 -38 -1 -8 8 -12 8 -12 1 0 -6 14 -25 32 -42 25 -24 40 -31 72 -31
41 0 106 31 106 50 0 13 -6 13 -41 -6 -38 -19 -104 -15 -104 6 0 9 6 13 15 11
31 -9 71 -3 89 13 11 10 28 16 38 14 16 -3 18 -12 15 -70 -6 -114 13 -82 27
45 7 67 13 122 14 123 1 1 33 -1 71 -5 l69 -6 19 -50 c29 -74 102 -115 168
-95 8 3 15 -1 15 -9 0 -8 -18 -20 -39 -28 -37 -12 -43 -11 -85 9 -35 17 -48
31 -56 56 -15 51 -24 38 -18 -25 6 -61 23 -98 23 -50 l0 27 20 -20 c32 -32 62
-40 110 -29 55 12 114 55 134 96 11 23 20 30 34 26 11 -3 29 0 41 6 24 13 21
45 -10 119 -17 38 -21 42 -39 32 -11 -6 -20 -14 -20 -19 0 -4 -13 -8 -30 -7
-21 1 -29 5 -25 16 45 160 25 374 -48 514 -36 68 -47 76 -149 110 -104 35
-159 34 -236 -5z m266 -42 c73 -29 105 -71 132 -171 11 -43 19 -81 16 -83 -2
-2 -7 5 -11 16 -6 19 -17 25 -37 22 -4 0 -11 17 -14 39 -4 22 -11 40 -16 40
-6 0 -8 -10 -4 -22 3 -13 9 -75 12 -138 10 -173 -18 -340 -56 -340 -6 0 -8 11
-4 25 3 14 1 31 -5 39 -9 11 -9 36 0 105 9 70 9 116 0 197 -7 58 -14 111 -17
118 -3 7 -24 19 -47 26 -68 21 -117 52 -123 77 -8 31 -20 29 -66 -13 -22 -20
-55 -42 -73 -50 -34 -14 -51 -31 -42 -40 10 -10 105 45 130 75 l25 30 18 -27
c21 -33 33 -41 104 -68 l55 -21 14 -97 c7 -53 11 -103 8 -111 -4 -8 -30 -27
-59 -44 -29 -16 -59 -35 -65 -41 -20 -17 -15 -65 7 -85 27 -24 19 -31 -29 -27
-27 3 -41 9 -41 18 0 8 5 14 10 14 6 0 10 13 10 30 0 32 -15 44 -71 54 -58 10
-92 63 -104 158 -7 55 -6 58 19 69 30 14 35 33 6 24 -16 -5 -20 -2 -20 14 0
38 -20 22 -22 -16 -7 -172 28 -252 120 -278 24 -7 38 -17 40 -30 2 -16 1 -17
-7 -5 -9 13 -11 13 -15 0 -3 -8 -7 -28 -9 -45 -3 -23 -4 -21 -6 12 0 23 -5 45
-11 48 -6 4 -10 -24 -10 -76 0 -48 -4 -79 -9 -73 -17 19 -41 109 -41 156 0 26
-4 48 -10 48 -6 0 -10 -47 -10 -122 l0 -121 -26 24 c-43 40 -51 68 -64 227
-14 160 -5 262 26 323 20 40 105 112 155 131 57 23 160 16 237 -15z m122 -253
c4 -10 3 -30 -2 -44 -10 -24 -11 -24 -18 -5 -13 31 -12 77 2 73 6 -2 14 -13
18 -24z m49 -149 c0 -61 -21 -190 -32 -202 -4 -3 -7 19 -7 50 0 66 -15 83 -24
28 -7 -43 -47 -134 -75 -170 -12 -15 -24 -22 -35 -18 -23 9 -20 19 13 41 16
11 37 33 46 49 20 34 44 160 45 235 0 29 5 52 11 52 5 0 17 17 26 38 l17 37 7
-40 c4 -22 8 -67 8 -100z m-176 -67 c-3 -35 -13 -79 -22 -98 l-16 -35 -3 68
c-3 74 -22 93 -22 22 0 -43 -1 -44 -20 -33 -11 7 -22 19 -25 27 -7 17 21 61
38 61 6 0 26 11 42 25 17 13 31 24 32 25 0 0 -1 -28 -4 -62z m-153 -128 c0 -5
-4 -10 -10 -10 -5 0 -10 5 -10 10 0 6 5 10 10 10 6 0 10 -4 10 -10z m-136 -32
c6 -30 2 -47 -9 -36 -11 10 -17 68 -7 68 5 0 12 -14 16 -32z m452 -52 c-8 -41
-63 -80 -100 -70 -14 3 -26 8 -26 11 0 14 37 49 48 45 18 -6 47 23 64 61 12
30 13 31 16 8 2 -13 1 -38 -2 -55z m44 38 c0 -8 5 -14 10 -14 6 0 10 7 10 16
0 14 3 14 15 4 21 -18 19 -47 -4 -55 -11 -3 -23 -15 -26 -26 -8 -25 -45 -60
-56 -53 -5 2 1 23 13 46 12 23 22 56 22 74 0 18 4 30 8 28 4 -3 8 -12 8 -20z
m-218 -16 c-7 -7 -12 -8 -12 -2 0 14 12 26 19 19 2 -3 -1 -11 -7 -17z"/>
<path d="M4340 2670 c0 -5 7 -10 15 -10 8 0 15 5 15 10 0 6 -7 10 -15 10 -8 0
-15 -4 -15 -10z"/>
<path d="M4372 2621 c-16 -10 -12 -53 5 -58 6 -2 16 4 22 15 13 24 -7 56 -27
43z"/>
<path d="M4137 2593 c-13 -12 -7 -43 8 -43 9 0 15 9 15 25 0 24 -10 32 -23 18z"/>
<path d="M4270 2567 c0 -9 -4 -17 -10 -17 -5 0 -10 5 -10 12 0 8 -3 9 -10 2
-14 -14 -1 -46 18 -42 24 5 39 35 24 50 -9 9 -12 8 -12 -5z"/>
<path d="M916 2880 c3 -25 14 -61 24 -80 15 -29 20 -32 25 -17 8 19 -12 77
-26 77 -5 0 -9 8 -9 18 0 9 -5 24 -11 32 -7 11 -8 3 -3 -30z"/>
<path d="M1000 2751 c0 -5 5 -13 10 -16 6 -3 10 -2 10 4 0 5 -4 13 -10 16 -5
3 -10 2 -10 -4z"/>
<path d="M960 2592 c0 -16 29 -41 53 -46 12 -3 34 -7 50 -11 39 -8 33 8 -10
29 -26 13 -39 14 -41 6 -3 -7 -13 -3 -28 11 -13 12 -24 18 -24 11z"/>
<path d="M3852 2420 c0 -14 2 -19 5 -12 2 6 2 18 0 25 -3 6 -5 1 -5 -13z"/>
<path d="M467 2423 c-4 -3 -7 -13 -7 -22 1 -13 3 -13 11 2 11 19 8 33 -4 20z"/>
<path d="M550 2370 c0 -5 5 -10 10 -10 6 0 10 5 10 10 0 6 -4 10 -10 10 -5 0
-10 -4 -10 -10z"/>
<path d="M3567 2090 c15 -16 43 -22 43 -9 0 5 -4 9 -9 9 -5 0 -18 3 -28 6 -15
6 -16 4 -6 -6z"/>
<path d="M652 1938 c6 -18 28 -21 28 -4 0 9 -7 16 -16 16 -9 0 -14 -5 -12 -12z"/>
<path d="M4005 1878 c5 -12 0 -15 -22 -12 -27 3 -27 3 -3 -4 17 -5 21 -10 12
-16 -17 -10 -15 -23 4 -30 12 -5 15 -2 10 10 -4 10 0 21 10 28 14 11 14 13 0
25 -14 12 -16 12 -11 -1z"/>
<path d="M4001 1793 c0 -4 4 -17 9 -28 8 -19 9 -19 9 2 1 12 -3 25 -9 28 -5 3
-10 3 -9 -2z"/>
<path d="M1118 1487 c-38 -10 -52 -27 -23 -27 8 0 15 -4 15 -10 0 -5 5 -10 11
-10 8 0 8 5 -1 15 -10 12 -8 16 14 25 14 5 26 12 26 15 0 3 -1 4 -2 4 -2 -1
-20 -6 -40 -12z"/>
<path d="M3525 744 c-41 -31 -176 -95 -193 -92 -15 3 -17 -9 -20 -102 -4 -117
5 -239 18 -260 10 -16 32 -10 152 41 76 32 78 32 92 13 26 -35 29 -6 12 113
-9 65 -20 158 -23 206 -3 48 -9 89 -12 91 -3 3 -15 -2 -26 -10z m15 -99 c0
-34 -20 -49 -35 -25 -10 16 -55 12 -61 -5 -4 -8 -26 -20 -50 -26 -46 -12 -55
-28 -29 -49 17 -14 22 -130 5 -130 -5 0 -10 -11 -10 -24 0 -35 35 -44 65 -16
16 15 25 18 30 10 4 -6 5 -13 4 -14 -14 -12 -103 -45 -108 -40 -3 3 -8 68 -9
144 l-4 137 69 22 c37 12 79 28 93 36 36 21 40 19 40 -20z m-38 -82 c2 -10 0
-38 -6 -63 l-10 -45 -6 50 c-3 28 -4 56 -2 63 6 18 19 15 24 -5z m-53 -101 c1
-50 0 -52 -19 -42 -15 8 -20 21 -20 56 0 25 5 55 12 67 l12 22 7 -25 c4 -14 7
-49 8 -78z m110 -22 c1 -31 -3 -37 -31 -48 -17 -6 -33 -10 -35 -9 -1 2 9 30
22 63 14 32 25 66 26 74 2 23 16 -41 18 -80z"/>
<path d="M3113 543 c-4 -9 1 -19 10 -24 11 -7 14 -19 10 -48 -7 -48 3 -91 20
-91 6 1 30 16 52 35 30 26 37 37 28 46 -9 9 -19 6 -42 -10 -23 -17 -31 -19
-31 -8 0 7 11 19 24 25 26 12 57 64 47 79 -3 5 -30 10 -59 11 -40 0 -55 -3
-59 -15z"/>
<path d="M3069 500 c-3 -20 -4 -25 -12 -37 -12 -19 -25 -16 -32 7 -3 11 -11
20 -17 20 -14 0 -3 -129 12 -144 7 -7 10 -4 11 10 3 44 5 49 20 52 11 2 19 -6
23 -22 12 -49 29 -29 22 27 -3 28 -6 62 -6 75 0 21 -19 32 -21 12z"/>
<path d="M2902 470 c-49 -22 -56 -55 -12 -55 21 0 25 -6 32 -44 8 -45 22 -70
31 -54 3 4 0 32 -6 62 -9 46 -8 55 6 63 20 11 23 48 5 48 -7 0 -32 -9 -56 -20z"/>
<path d="M2782 420 c-30 -29 -32 -124 -3 -140 28 -14 38 -13 61 10 27 27 28
110 2 133 -24 22 -34 21 -60 -3z m52 -52 c12 -20 -8 -48 -35 -48 -22 0 -26 39
-7 58 15 15 28 11 42 -10z"/>
<path d="M2460 405 c0 -18 53 -191 61 -199 17 -18 22 4 10 45 -7 22 -11 43 -9
45 2 2 22 -5 44 -16 48 -24 90 -30 87 -12 -4 17 4 15 28 -9 18 -18 23 -19 29
-8 12 21 29 121 23 136 -9 23 -20 5 -27 -42 -4 -25 -10 -45 -14 -45 -4 0 -18
16 -30 36 -18 27 -27 33 -35 25 -9 -9 -8 -16 1 -31 22 -35 14 -38 -42 -15 -35
15 -36 17 -21 38 16 23 20 57 6 57 -5 0 -19 -16 -32 -35 -13 -19 -26 -35 -29
-35 -3 0 -10 14 -15 32 -9 27 -35 53 -35 33z"/>
</g>
</svg>
